<svg version="1.2" xmlns="http://www.w3.org/2000/svg" viewBox="0 0 24 24" width="24" height="24">
	<title>academy-svg</title>
	<style>
		.s0 { fill: #414368 } 
	</style>
	<path id="Layer" fill-rule="evenodd" class="s0" d="m21.8 11.9c0 3-0.2 4.6-0.8 5.6-0.5 0.9-1.1 1.1-2.3 1.2-1.2 0.1-4.2 0.1-6.8 0.1-2.6 0-5.6 0-6.8-0.1-1.2-0.1-1.8-0.2-2.3-1.2-0.5-1-0.8-2.7-0.8-5.6 0-3 0.2-4.6 0.8-5.6 0.5-1 1.1-1.1 2.3-1.2 1.2-0.1 4.2-0.1 6.8-0.1 2.6 0 5.6 0 6.8 0.1 1.2 0.1 1.8 0.2 2.3 1.2 0.5 1 0.8 2.7 0.8 5.6zm-7.3 1.1c0.8-0.5 0.8-1.5 0-2l-4.6-2.8v7.5z"/>
</svg>