<svg version="1.2" xmlns="http://www.w3.org/2000/svg" viewBox="0 0 24 24" width="24" height="24">
	<title>arrow-left-svg</title>
	<style>
		.s0 { fill: none } 
		.s1 { fill: #414368 } 
		.s2 { opacity: .5;fill: #414368 } 
	</style>
	<g id="Layer">
		<path id="Layer" class="s0" d="m0 0h24v24h-24z"/>
		<path id="Layer" class="s1" d="m7.4 12l4.8 5.3c0.4 0.4 0.4 1.1 0 1.4-0.4 0.4-1.1 0.4-1.4 0l-5.5-6c-0.4-0.4-0.4-1 0-1.4l6-6c0.4-0.4 1-0.4 1.4 0 0.4 0.4 0.4 1 0 1.4z"/>
		<path id="Layer" class="s2" d="m14.4 12l4.8 5.3c0.4 0.4 0.4 1.1 0 1.4-0.4 0.4-1.1 0.4-1.4 0l-5.5-6c-0.4-0.4-0.4-1 0-1.4l6-6c0.4-0.4 1-0.4 1.4 0 0.4 0.4 0.4 1 0 1.4z"/>
	</g>
</svg>