<svg version="1.2" xmlns="http://www.w3.org/2000/svg" viewBox="0 0 448 512" width="448" height="512">
	<title>bell-svg</title>
	<style>
		.s0 { fill: #414368 } 
	</style>
	<path id="Layer" class="s0" d="m160 448h128c0 35.4-28.7 64-64 64-35.3 0-64-28.6-64-64zm288-64c-0.1 16.4-13 32-32.1 32h-383.8c-19.1 0-32-15.6-32.1-32 0-7.6 2.6-15.3 8.6-21.7 19.3-20.8 55.5-52 55.5-154.3 0-77.7 54.5-139.9 127.9-155.2v-20.8c0-17.7 14.3-32 32-32 17.7 0 32 14.3 32 32v20.8c73.4 15.3 127.9 77.5 127.9 155.2 0 102.3 36.2 133.5 55.5 154.3 6 6.4 8.7 14.1 8.6 21.7z"/>
</svg>