<svg version="1.2" xmlns="http://www.w3.org/2000/svg" viewBox="0 0 24 24" width="24" height="24">
	<title>chat-svg</title>
	<style>
		.s0 { fill: #414368 } 
	</style>
	<path id="Layer" fill-rule="evenodd" class="s0" d="m2 10.7v-7c0-0.9 0.8-1.7 1.7-1.7h10.6c0.9 0 1.7 0.8 1.7 1.7v7c0 1-0.8 1.8-1.7 1.8h-5.7l-3.4 2.2c-0.1 0.1-0.4 0.1-0.6 0-0.2-0.1-0.3-0.3-0.3-0.5v-1.7h-0.6c-0.9 0-1.7-0.8-1.7-1.8zm9.9-5.8c0 0.3 0.3 0.6 0.6 0.6 0.3 0 0.6-0.3 0.6-0.6 0-0.3-0.3-0.6-0.6-0.6-0.3 0-0.6 0.3-0.6 0.6zm0 2.3c0 0.4 0.3 0.6 0.6 0.6 0.3 0 0.6-0.2 0.6-0.6 0-0.3-0.3-0.5-0.6-0.5-0.3 0-0.6 0.2-0.6 0.5zm-7-2.3c0 0.3 0.3 0.6 0.6 0.6h4.7c0.3 0 0.6-0.3 0.6-0.6 0-0.3-0.3-0.6-0.6-0.6h-4.7c-0.3 0-0.6 0.3-0.6 0.6zm0 2.3c0 0.4 0.3 0.6 0.6 0.6h4.7c0.3 0 0.6-0.2 0.6-0.6 0-0.3-0.3-0.5-0.6-0.5h-4.7c-0.3 0-0.6 0.2-0.6 0.5zm0 2.4c0 0.3 0.3 0.5 0.6 0.5h7c0.3 0 0.6-0.2 0.6-0.5 0-0.4-0.3-0.6-0.6-0.6h-7c-0.3 0-0.6 0.2-0.6 0.6z"/>
	<path id="Layer" fill-rule="evenodd" class="s0" d="m22.1 11.2v7c0 0.9-0.8 1.7-1.8 1.7h-0.6v1.8c0 0.2-0.1 0.4-0.3 0.5q-0.3 0.2-0.6 0l-3.3-2.3h-5.7c-0.9 0-1.7-0.8-1.7-1.7v-3.4l1.1-0.7h5.3c1.6 0 2.9-1.3 2.9-2.9v-1.8h2.9c1 0 1.8 0.8 1.8 1.8zm-3 5.8c0-0.3-0.2-0.6-0.5-0.6h-7c-0.4 0-0.6 0.3-0.6 0.6 0 0.3 0.2 0.6 0.6 0.6h7c0.3 0 0.5-0.3 0.5-0.6z"/>
</svg>