<svg version="1.2" xmlns="http://www.w3.org/2000/svg" viewBox="0 0 24 24" width="24" height="24">
	<title>dashboard-svg</title>
	<style>
		.s0 { opacity: .3;fill: #414368 } 
		.s1 { fill: #414368 } 
	</style>
	<path id="Layer" class="s0" d="m11 12.9h7.9c0.6 0 1.1 0.5 1 1.1-0.6 5-5.4 8.7-10.6 7.7-3.6-0.7-6.4-3.5-7.1-7.1-1-5.3 2.8-10 7.7-10.6 0.6-0.1 1.1 0.4 1.1 1z"/>
	<path id="Layer" class="s1" d="m13 10.9v-7.9c0-0.6 0.5-1.1 1.1-1 2 0.2 3.8 1.1 5.2 2.6 1.4 1.4 2.3 3.3 2.6 5.2 0.1 0.6-0.4 1.1-1 1.1z"/>
</svg>