<svg version="1.2" xmlns="http://www.w3.org/2000/svg" viewBox="0 0 24 24" width="24" height="24">
	<title>eventos-svg</title>
	<style>
		.s0 { opacity: .3;fill: #414368 } 
		.s1 { fill: #414368 } 
	</style>
	<path id="Layer" class="s0" d="m21 22h-18c-0.6 0-1-0.4-1-1v-16c0-0.6 0.4-1 1-1h18c0.6 0 1 0.4 1 1v16c0 0.6-0.4 1-1 1z"/>
	<path id="Layer" fill-rule="evenodd" class="s1" d="m6 6c-0.6 0-1-0.4-1-1v-2c0-0.6 0.4-1 1-1 0.6 0 1 0.4 1 1v2c0 0.6-0.4 1-1 1zm4 0c-0.6 0-1-0.4-1-1v-2c0-0.6 0.4-1 1-1 0.6 0 1 0.4 1 1v2c0 0.6-0.4 1-1 1zm4 0c-0.6 0-1-0.4-1-1v-2c0-0.6 0.4-1 1-1 0.6 0 1 0.4 1 1v2c0 0.6-0.4 1-1 1zm4 0c-0.6 0-1-0.4-1-1v-2c0-0.6 0.4-1 1-1 0.6 0 1 0.4 1 1v2c0 0.6-0.4 1-1 1z"/>
	<path id="Layer" class="s1" d="m8.8 13.1q0.6 0 0.9-0.3c0.2-0.2 0.4-0.5 0.4-0.9 0-0.3-0.1-0.6-0.3-0.8-0.2-0.2-0.5-0.3-0.8-0.3-0.2 0-0.4 0-0.6 0.1-0.2 0.1-0.3 0.2-0.4 0.3-0.1 0.1-0.2 0.2-0.3 0.4-0.1 0.2-0.2 0.3-0.2 0.5 0 0.1-0.1 0.1-0.2 0.2-0.1 0.1-0.2 0.1-0.4 0.1-0.2 0-0.3-0.1-0.4-0.2-0.1-0.1-0.2-0.3-0.2-0.5 0-0.2 0.1-0.4 0.2-0.6 0.1-0.2 0.3-0.4 0.5-0.6 0.2-0.2 0.5-0.4 0.9-0.5 0.4-0.1 0.7-0.2 1.2-0.2 0.4 0 0.7 0.1 1 0.2 0.3 0.1 0.6 0.3 0.8 0.4 0.2 0.1 0.4 0.4 0.5 0.7 0.1 0.3 0.2 0.5 0.2 0.8 0 0.4-0.1 0.7-0.3 1-0.2 0.3-0.4 0.6-0.7 0.8 0.3 0.2 0.6 0.4 0.8 0.6 0.2 0.2 0.4 0.4 0.5 0.7 0.1 0.3 0.2 0.5 0.2 0.8 0 0.4-0.1 0.7-0.2 1-0.1 0.3-0.4 0.6-0.6 0.9-0.2 0.3-0.6 0.5-1 0.6-0.4 0.1-0.8 0.2-1.3 0.2-0.5 0-0.9-0.1-1.3-0.3q-0.6-0.3-0.9-0.6c-0.2-0.2-0.4-0.5-0.5-0.8-0.1-0.3-0.2-0.5-0.2-0.7 0-0.2 0.1-0.4 0.2-0.5 0.1-0.1 0.3-0.2 0.5-0.2 0.1 0 0.2 0 0.3 0.1 0.1 0.1 0.2 0.1 0.2 0.2 0.2 0.5 0.4 0.9 0.7 1.2 0.3 0.3 0.6 0.4 1 0.4 0.2 0 0.5-0.1 0.7-0.2 0.2-0.1 0.4-0.3 0.6-0.5 0.2-0.2 0.2-0.5 0.2-0.8 0-0.5-0.1-0.8-0.4-1.1-0.3-0.3-0.6-0.4-1-0.4-0.1 0-0.2 0-0.4 0q-0.3 0-0.3 0c-0.2 0-0.4-0.1-0.5-0.2-0.1-0.1-0.2-0.3-0.2-0.4 0-0.2 0.1-0.3 0.2-0.5 0.1-0.2 0.3-0.2 0.6-0.2h0.3zm6.5 4.4v-5.3c-1 0.8-1.7 1.1-2 1.1-0.2 0-0.3-0.1-0.4-0.2-0.1-0.1-0.2-0.3-0.2-0.5 0-0.2 0.1-0.3 0.2-0.4 0.1-0.1 0.3-0.2 0.7-0.4 0.5-0.2 0.9-0.5 1.1-0.7 0.2-0.2 0.5-0.5 0.8-0.8 0.3-0.3 0.4-0.5 0.4-0.6 0-0.1 0.2-0.1 0.4-0.1 0.2 0 0.4 0.1 0.5 0.2 0.1 0.1 0.2 0.4 0.2 0.7v6.7c0 0.8-0.3 1.2-0.8 1.2-0.2 0-0.4-0.1-0.6-0.2-0.2-0.1-0.3-0.4-0.3-0.7z"/>
</svg>