<svg version="1.2" xmlns="http://www.w3.org/2000/svg" viewBox="0 0 24 24" width="24" height="24">
	<title>help-svg</title>
	<style>
		.s0 { opacity: .3;fill: #414368 } 
		.s1 { fill: #414368 } 
	</style>
	<path id="Layer" class="s0" d="m12 22c-5.5 0-10-4.5-10-10 0-5.5 4.5-10 10-10 5.5 0 10 4.5 10 10 0 5.5-4.5 10-10 10z"/>
	<path id="Layer" class="s1" d="m12 16c0.6 0 1 0.4 1 1 0 0.6-0.4 1-1 1-0.6 0-1-0.4-1-1 0-0.6 0.4-1 1-1zm-1.4-1.1v-1.7h1.3c1.5 0 2.7-1.2 2.7-2.8 0-1.6-1.2-2.8-2.7-2.8-1.7 0-2.8 1.2-2.8 2.8h-1.8c0-2.5 2-4.5 4.6-4.5 2.5 0 4.5 2 4.5 4.5 0 2.5-2 4.5-4.5 4.5z"/>
</svg>