<svg version="1.2" xmlns="http://www.w3.org/2000/svg" viewBox="0 0 24 24" width="24" height="24">
	<title>indicacoes-svg</title>
	<style>
		.s0 { opacity: .3;fill: #414368 } 
		.s1 { fill: #414368 } 
	</style>
	<path id="Layer" class="s0" d="m10.9 2c0.6 0 1 0.4 1 1 0 0.6-0.4 1-1 1h-4.9c-1.1 0-2 0.9-2 2v12c0 1.1 0.9 2 2 2h12c1.1 0 2-0.9 2-2v-2c0-0.6 0.4-1 1-1 0.6 0 1 0.4 1 1v2c0 2.2-1.8 4-4 4h-12c-2.2 0-4-1.8-4-4v-12c0-2.2 1.8-4 4-4z"/>
	<path id="Layer" class="s1" d="m7 13.9c0-0.8-0.2-3.8 2.2-6.2 1.6-1.6 4-1.8 6.9-2v-3.9c0-0.4 0.3-0.7 0.7-0.7q0.3 0 0.5 0.2l6.5 5.9c0.3 0.3 0.4 0.7 0.1 1q0 0.1-0.1 0.1l-6.5 6c-0.3 0.3-0.8 0.3-1 0q-0.2-0.2-0.2-0.5v-3.9c-1.9 0.1-3.1 0.2-4.3 0.5q-2.5 0.9-3.9 4.6c-0.1 0.3-0.4 0.5-0.7 0.5h-0.2c0-0.5 0-1.2 0-1.6z"/>
</svg>