<svg version="1.2" xmlns="http://www.w3.org/2000/svg" viewBox="0 0 24 24" width="24" height="24">
	<title>noticias-svg</title>
	<style>
		.s0 { fill: #414368 } 
		.s1 { opacity: .3;fill: #414368 } 
	</style>
	<path id="Layer" fill-rule="evenodd" class="s0" d="m13 11h-10c-0.6 0-1-0.4-1-1v-1c0-0.6 0.4-1 1-1h10c0.6 0 1 0.4 1 1v1c0 0.6-0.4 1-1 1zm9-6v-1c0-0.6-0.4-1-1-1h-18c-0.6 0-1 0.4-1 1v1c0 0.6 0.4 1 1 1h18c0.6 0 1-0.4 1-1z"/>
	<path id="Layer" fill-rule="evenodd" class="s1" d="m21 16h-18c-0.6 0-1-0.4-1-1v-1c0-0.6 0.4-1 1-1h18c0.6 0 1 0.4 1 1v1c0 0.6-0.4 1-1 1zm-8 5h-10c-0.6 0-1-0.4-1-1v-1c0-0.6 0.4-1 1-1h10c0.6 0 1 0.4 1 1v1c0 0.6-0.4 1-1 1z"/>
</svg>