<svg version="1.2" xmlns="http://www.w3.org/2000/svg" viewBox="0 0 24 24" width="24" height="24">
	<title>projetos-svg</title>
	<style>
		.s0 { opacity: .3;fill: #414368 } 
		.s1 { fill: #414368 } 
	</style>
	<path id="Layer" fill-rule="evenodd" class="s0" d="m4.1 15.2c4.2-7.4 9.5-11.9 16.8-13.2q0.2 0 0.5 0 0.2 0.1 0.3 0.3 0.2 0.1 0.3 0.3 0 0.3 0 0.5c-1.3 7.3-5.8 12.6-13.2 16.8zm2.6 5l-3.1 1.2q-0.2 0.1-0.4 0-0.2 0-0.4-0.1-0.1-0.2-0.1-0.4-0.1-0.2 0-0.4l1.2-3.1zm9.8-14.2q-0.5 0-0.8 0.3-0.4 0.2-0.6 0.6-0.2 0.4-0.1 0.9 0.1 0.4 0.4 0.8 0.4 0.3 0.8 0.4 0.5 0.1 0.9-0.1 0.4-0.2 0.6-0.6 0.3-0.3 0.3-0.8c0-0.4-0.2-0.8-0.4-1.1-0.3-0.2-0.7-0.4-1.1-0.4z"/>
	<path id="Layer" fill-rule="evenodd" class="s1" d="m4.1 15.2l-1.9-1.8q-0.1-0.1-0.2-0.3 0-0.2 0-0.4 0-0.2 0.1-0.4 0.2-0.1 0.3-0.2l6.8-3.8c-2 2.1-3.7 4.4-5.1 6.9zm4.7 4.7l1.8 1.9q0.1 0.1 0.3 0.2 0.2 0 0.4 0 0.2 0 0.4-0.1 0.1-0.2 0.2-0.3l3.8-6.8c-2.1 2-4.4 3.7-6.9 5.1zm-1.8-1.7l5.6-5.6q0.2-0.2 0.2-0.6 0-0.3-0.2-0.6-0.3-0.2-0.6-0.2-0.4 0-0.6 0.2l-5.6 5.6z"/>
</svg>