<svg version="1.2" xmlns="http://www.w3.org/2000/svg" viewBox="0 0 24 24" width="24" height="24">
	<title>proventos-svg</title>
	<style>
		.s0 { fill: none } 
		.s1 { opacity: .3;fill: #414368 } 
		.s2 { fill: #414368 } 
	</style>
	<g id="Layer">
		<path id="Layer" class="s0" d="m0 0h24v24h-24z"/>
		<path id="Layer" class="s1" d="m11.5 3c0-0.6 0.4-1 1-1 0.6 0 1 0.4 1 1v2c0 0.6-0.4 1-1 1-0.6 0-1-0.4-1-1z"/>
		<path id="Layer" class="s1" d="m11.5 17c0-0.6 0.4-1 1-1 0.6 0 1 0.4 1 1v3c0 0.6-0.4 1-1 1-0.6 0-1-0.4-1-1z"/>
		<path id="Layer" fill-rule="evenodd" class="s2" d="m15.5 8q-0.4-0.5-1.1-0.8-0.7-0.3-1.3-0.3-0.3 0-0.7 0-0.3 0.1-0.6 0.3-0.2 0.1-0.4 0.4-0.2 0.2-0.2 0.6 0 0.4 0.2 0.6 0.1 0.2 0.4 0.4 0.3 0.2 0.6 0.3 0.4 0.2 0.9 0.3 0.7 0.2 1.4 0.5 0.8 0.3 1.4 0.7 0.6 0.5 1 1.2 0.4 0.7 0.4 1.7 0 1.1-0.5 2-0.4 0.8-1.1 1.4-0.7 0.5-1.7 0.8-0.9 0.2-1.9 0.2-1.4 0-2.8-0.5-1.3-0.5-2.2-1.4l2.1-2.2q0.5 0.6 1.3 1.1 0.8 0.4 1.6 0.4 0.4 0 0.7-0.1 0.4-0.1 0.6-0.3 0.3-0.1 0.4-0.4 0.2-0.3 0.2-0.7 0-0.4-0.2-0.6-0.2-0.3-0.5-0.5-0.4-0.2-0.9-0.4-0.5-0.2-1.2-0.4-0.7-0.2-1.3-0.5-0.6-0.3-1.1-0.7-0.5-0.5-0.8-1.1-0.3-0.7-0.2-1.6-0.1-1.1 0.4-1.9 0.5-0.8 1.2-1.3 0.7-0.5 1.7-0.8 0.9-0.2 1.9-0.2 1.1 0 2.3 0.4 1.2 0.4 2.1 1.3z"/>
	</g>
</svg>