<svg version="1.2" xmlns="http://www.w3.org/2000/svg" viewBox="0 0 24 24" width="24" height="24">
	<title>servicos-svg</title>
	<style>
		.s0 { opacity: .3;fill: #414368 } 
		.s1 { fill: #414368 } 
	</style>
	<path id="Layer" fill-rule="evenodd" class="s0" d="m20 15h-6v-2c0-0.6-0.4-1-1-1h-2c-0.5 0-1 0.4-1 1v2h-6c-1.1 0-2-0.9-2-2v-6c0-0.6 0.4-1 1-1h18c0.6 0 1 0.4 1 1v6c0 1.1-0.9 2-2 2zm-10 1c0 0.5 0.4 1 1 1h2c0.6 0 1-0.4 1-1v-1h-4z"/>
	<path id="Layer" fill-rule="evenodd" class="s1" d="m14 6v-1h-4v1h-2v-1c0-1.1 0.9-2 2-2h4c1.1 0 2 0.9 2 2v1zm6 9h-6v1c0 0.6-0.5 1-1 1h-2c-0.5 0-1-0.4-1-1v-1h-6c-0.4 0-0.7-0.1-1-0.3v3.3c0 1.1 0.9 2 2 2h14c1.1 0 2-0.9 2-2v-3.3c-0.3 0.2-0.6 0.3-1 0.3z"/>
</svg>