<?xml version="1.0" encoding="UTF-8" standalone="no"?>
<!-- Generator: Adobe Illustrator 22.0.1, SVG Export Plug-In . SVG Version: 6.00 Build 0)  -->

<svg
   xmlns:dc="http://purl.org/dc/elements/1.1/"
   xmlns:cc="http://creativecommons.org/ns#"
   xmlns:rdf="http://www.w3.org/1999/02/22-rdf-syntax-ns#"
   xmlns:svg="http://www.w3.org/2000/svg"
   xmlns="http://www.w3.org/2000/svg"
   xmlns:sodipodi="http://sodipodi.sourceforge.net/DTD/sodipodi-0.dtd"
   xmlns:inkscape="http://www.inkscape.org/namespaces/inkscape"
   version="1.1"
   id="Layer_1"
   x="0px"
   y="0px"
   viewBox="0 0 979.65694 378.20179"
   xml:space="preserve"
   sodipodi:docname="logo-white.svg"
   width="979.65692"
   height="378.20178"
   inkscape:version="0.92.2 5c3e80d, 2017-08-06"><metadata
     id="metadata21"><rdf:RDF><cc:Work
         rdf:about=""><dc:format>image/svg+xml</dc:format><dc:type
           rdf:resource="http://purl.org/dc/dcmitype/StillImage" /><dc:title></dc:title></cc:Work></rdf:RDF></metadata><defs
     id="defs19" /><sodipodi:namedview
     pagecolor="#ffffff"
     bordercolor="#666666"
     borderopacity="1"
     objecttolerance="10"
     gridtolerance="10"
     guidetolerance="10"
     inkscape:pageopacity="0"
     inkscape:pageshadow="2"
     inkscape:window-width="1440"
     inkscape:window-height="775"
     id="namedview17"
     showgrid="false"
     fit-margin-top="0"
     fit-margin-left="0"
     fit-margin-right="0"
     fit-margin-bottom="0"
     inkscape:zoom="0.79287756"
     inkscape:cx="128.52774"
     inkscape:cy="108.2278"
     inkscape:window-x="0"
     inkscape:window-y="1"
     inkscape:window-maximized="1"
     inkscape:current-layer="Layer_1" /><style
     type="text/css"
     id="style2">
	.st0{fill:#010202;}
	.st1{fill:url(#SVGID_1_);}
	.st2{fill:url(#SVGID_2_);}
	.st3{fill:url(#SVGID_3_);}
	.st4{fill:url(#SVGID_4_);}
	.st5{fill:url(#SVGID_5_);}
	.st6{fill:url(#SVGID_6_);}
	.st7{fill:url(#SVGID_7_);}
	.st8{fill:url(#SVGID_8_);}
	.st9{fill:#FFFFFF;}
	.st10{fill:url(#SVGID_9_);}
	.st11{fill:url(#SVGID_10_);}
	.st12{fill:url(#SVGID_11_);}
	.st13{fill:url(#SVGID_12_);}
	.st14{fill:url(#SVGID_13_);}
	.st15{fill:url(#SVGID_14_);}
	.st16{fill:url(#SVGID_15_);}
	.st17{fill:url(#SVGID_16_);}
	.st18{fill:#9D9D9C;}
	.st19{fill:#BEBEBE;}
	.st20{fill:#27348B;}
	.st21{fill:url(#SVGID_17_);}
	.st22{fill:#009FE3;}
	.st23{fill:url(#SVGID_18_);}
	.st24{fill:url(#SVGID_19_);}
</style><g
     id="g14"
     transform="matrix(2.6577778,0,0,2.6577778,-301.392,-601.98667)"
     style="fill:#ffffff"><polygon
       class="st0"
       points="356.1,338.9 372,314 387.8,338.9 414,338.9 385.8,296.7 412.8,256.4 387.2,256.4 372.4,279.6 357.8,256.4 331.6,256.4 358.7,296.9 330.4,338.9 "
       id="polygon4"
       style="fill:#ffffff" /><path
       class="st0"
       d="m 479.8,303.3 c -1.4,-2.8 -3.5,-5.2 -6.1,-7.1 -2.7,-2 -5.9,-3.6 -9.7,-5 -3.8,-1.4 -8.1,-2.6 -12.8,-3.6 -2.8,-0.6 -5.2,-1.2 -7,-1.8 -1.8,-0.6 -3.3,-1.2 -4.4,-1.8 -1.1,-0.6 -1.8,-1.2 -2.2,-1.9 -0.4,-0.7 -0.7,-1.5 -0.7,-2.5 v -0.2 c 0,-1.5 0.7,-2.7 2.1,-3.8 1.4,-1 3.4,-1.5 6.2,-1.5 3.7,0 7.5,0.7 11.5,2.1 4,1.4 7.8,3.4 11.6,6.1 l 11.4,-16.2 c -4.5,-3.6 -9.5,-6.4 -15,-8.2 -5.5,-1.9 -11.8,-2.8 -18.9,-2.8 -5,0 -9.4,0.7 -13.3,1.9 -3.9,1.3 -7.3,3.1 -10.1,5.5 -2.8,2.4 -4.9,5.1 -6.4,8.3 -1.5,3.2 -2.2,6.7 -2.2,10.6 v 0.2 c 0,4.2 0.8,7.8 2.4,10.6 1.6,2.9 3.8,5.3 6.6,7.2 2.8,1.9 6.1,3.5 9.8,4.7 3.8,1.2 7.9,2.3 12.3,3.3 2.8,0.6 5.1,1.2 6.9,1.8 1.8,0.6 3.2,1.2 4.2,1.8 1.1,0.6 1.8,1.3 2.2,1.9 0.4,0.7 0.6,1.4 0.6,2.3 v 0.2 c 0,1.8 -0.8,3.2 -2.4,4.2 -1.6,1 -3.9,1.5 -7,1.5 -9.6,0 -18.5,-3.3 -26.7,-9.9 L 410,326.4 c 5.1,4.6 11,8 17.6,10.3 6.6,2.3 13.6,3.4 21,3.4 5,0 9.6,-0.6 13.7,-1.8 4.1,-1.2 7.6,-3 10.5,-5.3 2.9,-2.3 5.2,-5.1 6.8,-8.4 1.6,-3.3 2.4,-7.1 2.4,-11.3 v -0.2 c -0.1,-3.7 -0.8,-7 -2.2,-9.8 z"
       id="path6"
       inkscape:connector-curvature="0"
       style="fill:#ffffff" /><path
       class="st0"
       d="m 336.7,297.6 v -0.2 c 0,-5.9 -1.1,-11.4 -3.4,-16.6 -2.2,-5.2 -5.3,-9.7 -9.2,-13.5 -3.9,-3.8 -8.6,-6.9 -14,-9.1 -5.4,-2.2 -11.3,-3.4 -17.7,-3.4 -6.4,0 -12.3,1.1 -17.7,3.4 -5.4,2.2 -10.1,5.3 -14.1,9.2 -4,3.9 -7.1,8.4 -9.4,13.7 -2.2,5.2 -3.4,10.8 -3.4,16.7 v 0.2 c 0,5.9 1.1,11.4 3.4,16.6 2.2,5.2 5.3,9.7 9.2,13.5 3.9,3.8 8.6,6.9 14,9.1 5.4,2.2 11.3,3.4 17.7,3.4 6.4,0 12.3,-1.1 17.7,-3.4 5.4,-2.2 10.1,-5.3 14.1,-9.2 4,-3.9 7.1,-8.4 9.4,-13.7 2.2,-5.2 3.4,-10.8 3.4,-16.7 z m -23.4,0.3 c 0,3 -0.5,5.8 -1.5,8.5 -1,2.7 -2.4,5 -4.3,7 -1.8,2 -4,3.6 -6.6,4.8 -2.6,1.2 -5.5,1.8 -8.6,1.8 -3.2,0 -6,-0.6 -8.6,-1.8 -2.6,-1.2 -4.8,-2.8 -6.7,-4.9 -1.9,-2 -3.3,-4.4 -4.3,-7.1 -1,-2.7 -1.5,-5.5 -1.5,-8.5 v -0.2 c 0,-3 0.5,-5.8 1.5,-8.5 1,-2.7 2.4,-5 4.3,-7 1.9,-2 4.1,-3.6 6.6,-4.8 2.6,-1.2 5.4,-1.8 8.6,-1.8 3.2,0 6,0.6 8.6,1.8 2.6,1.2 4.8,2.8 6.7,4.9 1.9,2 3.3,4.4 4.4,7.1 1,2.7 1.5,5.5 1.5,8.5 v 0.2 z"
       id="path8"
       inkscape:connector-curvature="0"
       style="fill:#ffffff" /><polygon
       class="st0"
       points="213.6,286.3 213.6,368.8 276.4,368.8 276.4,348.8 236.5,348.8 236.5,286.3 "
       id="polygon10"
       style="fill:#ffffff" /><path
       class="st0"
       d="m 189.6,267.2 c -3.9,-3.8 -8.6,-6.9 -14,-9.1 -5.4,-2.2 -11.3,-3.4 -17.7,-3.4 -6.4,0 -12.3,1.1 -17.7,3.4 -1.4,0.6 -2.7,1.2 -4,1.9 v -33.5 h -22.8 v 71.2 0.2 42.6 h 22.8 v -5.1 c 1.2,0.6 2.5,1.2 3.8,1.8 5.4,2.2 11.3,3.4 17.7,3.4 6.4,0 12.3,-1.1 17.7,-3.4 5.4,-2.2 10.1,-5.3 14.1,-9.2 4,-3.9 7.1,-8.4 9.4,-13.7 2.2,-5.2 3.4,-10.8 3.4,-16.7 v -0.2 c 0,-5.9 -1.1,-11.4 -3.4,-16.6 -2.3,-5.2 -5.4,-9.7 -9.3,-13.6 z m -10.7,30.7 c 0,3 -0.5,5.8 -1.5,8.5 -1,2.7 -2.4,5 -4.3,7 -1.8,2 -4,3.6 -6.6,4.8 -2.6,1.2 -5.5,1.8 -8.6,1.8 -3.2,0 -6,-0.6 -8.6,-1.8 -2.6,-1.2 -4.8,-2.8 -6.7,-4.9 -1.9,-2 -3.3,-4.4 -4.3,-7.1 -1,-2.7 -1.5,-5.5 -1.5,-8.5 v -0.2 c 0,-3 0.5,-5.8 1.5,-8.5 1,-2.7 2.4,-5 4.3,-7 1.9,-2 4.1,-3.6 6.6,-4.8 2.6,-1.2 5.4,-1.8 8.6,-1.8 3.2,0 6,0.6 8.6,1.8 2.6,1.2 4.8,2.8 6.7,4.9 1.9,2 3.3,4.4 4.4,7.1 1,2.7 1.5,5.5 1.5,8.5 v 0.2 z"
       id="path12"
       inkscape:connector-curvature="0"
       style="fill:#ffffff" /></g></svg>