<?xml version="1.0" encoding="UTF-8" standalone="no"?>
<svg
   xmlns:dc="http://purl.org/dc/elements/1.1/"
   xmlns:cc="http://creativecommons.org/ns#"
   xmlns:rdf="http://www.w3.org/1999/02/22-rdf-syntax-ns#"
   xmlns:svg="http://www.w3.org/2000/svg"
   xmlns="http://www.w3.org/2000/svg"
   xmlns:sodipodi="http://sodipodi.sourceforge.net/DTD/sodipodi-0.dtd"
   xmlns:inkscape="http://www.inkscape.org/namespaces/inkscape"
   inkscape:version="1.0beta1 (32d4812, 2019-09-19)"
   height="46.5"
   width="351.72137"
   sodipodi:docname="logo-bloxs-for-business-white_.svg"
   version="1.1"
   viewBox="0 0 351.72137 46.500001"
   data-name="Camada 1"
   id="Camada_1">
  <metadata
     id="metadata45">
    <rdf:RDF>
      <cc:Work
         rdf:about="">
        <dc:format>image/svg+xml</dc:format>
        <dc:type
           rdf:resource="http://purl.org/dc/dcmitype/StillImage" />
        <dc:title></dc:title>
      </cc:Work>
    </rdf:RDF>
  </metadata>
  <sodipodi:namedview
     inkscape:current-layer="Camada_1"
     inkscape:window-maximized="0"
     inkscape:window-y="25"
     inkscape:window-x="0"
     inkscape:cy="-43.700061"
     inkscape:cx="161.27802"
     inkscape:zoom="1.0016445"
     fit-margin-bottom="0"
     fit-margin-right="0"
     fit-margin-left="0"
     fit-margin-top="0"
     units="mm"
     showgrid="false"
     id="namedview43"
     inkscape:window-height="847"
     inkscape:window-width="1440"
     inkscape:pageshadow="2"
     inkscape:pageopacity="0"
     guidetolerance="10"
     gridtolerance="10"
     objecttolerance="10"
     borderopacity="1"
     inkscape:document-rotation="0"
     bordercolor="#666666"
     pagecolor="#ffffff" />
  <defs
     id="defs12">
    <style
       id="style10">.cls-1{fill:#fff;}</style>
  </defs>
  <path
     inkscape:connector-curvature="0"
     id="path14"
     d="m 137.17,21.61 v -1.06 c 0,-3.81 2.17,-6.76 6.29,-6.76 a 5.38,5.38 0 0 1 3.33,0.91 l -0.69,1.82 a 4,4 0 0 0 -2.52,-0.75 c -2.76,0 -4,2.32 -4,4.78 v 1.06 h 6.1 v 2 h -6.1 v 12.94 h -2.42 V 23.63 h -3.17 v -2 z"
     class="cls-1" />
  <path
     inkscape:connector-curvature="0"
     id="path16"
     d="m 149.43,29.03 c 0,-4.56 3.49,-7.79 8.27,-7.79 4.78,0 8.25,3.23 8.25,7.79 0,4.56 -3.51,7.84 -8.25,7.84 -4.74,0 -8.27,-3.25 -8.27,-7.84 z m 14,0 a 5.74,5.74 0 1 0 -5.73,5.84 5.5,5.5 0 0 0 5.72,-5.84 z"
     class="cls-1" />
  <path
     inkscape:connector-curvature="0"
     id="path18"
     d="m 174.11,21.65 0.25,2 c 2.11,-3.08 6.63,-2.83 9.08,-1.45 l -1,2 c -3.62,-2.14 -8.05,-0.28 -8.05,4.37 v 8 h -2.44 V 21.65 Z"
     class="cls-1" />
  <path
     inkscape:connector-curvature="0"
     id="path20"
     d="m 214.34,34.87 a 9.62,9.62 0 0 1 -5.94,1.67 h -11.73 v -22 h 11.28 a 8.08,8.08 0 0 1 5.18,1.54 c 2.61,2.14 2.71,7.33 -0.81,8.74 v 0.05 c 4.63,0.52 5.41,7.27 2.02,10 z m -6,-11 a 5.21,5.21 0 0 0 3.24,-1 3.85,3.85 0 0 0 0,-5.18 5.28,5.28 0 0 0 -3.52,-1 h -8.81 v 7.18 z m -9.05,2.17 v 8.3 h 9.15 a 6.62,6.62 0 0 0 4.33,-1.2 4.34,4.34 0 0 0 -0.12,-6 6.53,6.53 0 0 0 -4.21,-1.13 z"
     class="cls-1" />
  <path
     inkscape:connector-curvature="0"
     id="path22"
     d="m 237.63,31.45 v 5.1 h -2.17 l -0.28,-2.33 c -1.07,1.88 -3.11,2.64 -5.34,2.67 -3.65,0.06 -7.61,-1.88 -7.61,-7.76 v -7.55 h 2.45 v 7.58 c 0,4.18 2.45,5.81 5,5.85 2.55,0.04 5.47,-2 5.47,-6 v -7.43 h 2.45 z"
     class="cls-1" />
  <path
     inkscape:connector-curvature="0"
     id="path24"
     d="m 250.8,34.87 c 2.64,0.09 5.38,-0.69 5.6,-2.52 0.53,-4.37 -12.57,0.06 -12.57,-6.57 0,-3.46 4.33,-4.46 7.13,-4.52 3.36,0 7.51,1 7.64,4.55 h -2.26 c -0.16,-2.1 -3.78,-2.51 -5.35,-2.51 -2.2,0 -4.74,0.88 -4.74,2.55 0,3.92 13.45,-0.48 12.57,6.94 -0.35,2.89 -4.12,4.15 -7.76,4.12 -3.84,0 -7.55,-1.64 -7.64,-4.72 l 2.23,-0.09 c 0.03,1.68 2.64,2.59 5.15,2.77 z"
     class="cls-1" />
  <path
     inkscape:connector-curvature="0"
     id="path26"
     d="m 264.7,18.25 v -3.74 h 2.39 v 3.74 z m 0,18.3 V 21.61 h 2.42 v 14.94 z"
     class="cls-1" />
  <path
     inkscape:connector-curvature="0"
     id="path28"
     d="M 274.03,36.55 V 21.61 h 2.17 l 0.29,2.36 a 6,6 0 0 1 5.37,-2.7 c 3.62,-0.06 7.58,1.88 7.58,7.76 v 7.52 h -2.49 V 29 c 0,-4.15 -2.45,-5.81 -5,-5.85 -2.55,-0.04 -5.44,2 -5.47,6.07 v 7.33 h -2.46 z"
     class="cls-1" />
  <path
     inkscape:connector-curvature="0"
     id="path30"
     d="m 297.95,30.07 c 0.31,3.11 3,4.71 5.65,4.78 2,0 3.93,-0.51 5,-2.61 l 2,0.66 c -1.22,2.89 -4.05,4 -7.1,4 -4.62,0 -8.08,-3.21 -8.08,-7.8 0,-4.59 3.46,-7.79 8.08,-7.79 5.19,0 8.2,3.65 7.89,8.8 z m 11,-2 a 5.39,5.39 0 0 0 -5.53,-4.78 5.2,5.2 0 0 0 -5.47,4.77 z"
     class="cls-1" />
  <path
     inkscape:connector-curvature="0"
     id="path32"
     d="m 323.58,34.87 c 2.64,0.09 5.37,-0.69 5.59,-2.52 0.54,-4.37 -12.57,0.06 -12.57,-6.57 0,-3.46 4.34,-4.46 7.13,-4.52 3.37,0 7.52,1 7.64,4.55 h -2.26 c -0.16,-2.1 -3.77,-2.51 -5.34,-2.51 -2.2,0 -4.75,0.88 -4.75,2.55 0,3.92 13.45,-0.48 12.57,6.94 -0.34,2.89 -4.11,4.15 -7.76,4.12 -3.84,0 -7.55,-1.64 -7.64,-4.72 l 2.23,-0.09 c 0.03,1.68 2.64,2.59 5.16,2.77 z"
     class="cls-1" />
  <path
     inkscape:connector-curvature="0"
     id="path34"
     d="m 343.66,34.87 c 2.64,0.09 5.38,-0.69 5.6,-2.52 0.53,-4.37 -12.57,0.06 -12.57,-6.57 0,-3.46 4.33,-4.46 7.13,-4.52 3.37,0 7.51,1 7.64,4.55 h -2.26 c -0.16,-2.1 -3.78,-2.51 -5.35,-2.51 -2.2,0 -4.74,0.88 -4.74,2.55 0,3.92 13.45,-0.48 12.57,6.94 -0.35,2.84 -4.12,4.08 -7.73,4.08 -3.84,0 -7.55,-1.64 -7.64,-4.72 l 2.23,-0.09 c 0,1.72 2.61,2.63 5.12,2.81 z"
     class="cls-1" />
  <g
     transform="translate(-54.05,-33.13)"
     id="g14">
    <polygon
       points="151.88,42.9 143.52,42.9 138.68,50.48 133.91,42.9 125.35,42.9 134.21,56.13 124.96,69.86 133.36,69.86 138.55,61.72 143.72,69.86 152.28,69.86 143.06,56.07 "
       class="cls-1"
       id="polygon4" />
    <path
       inkscape:connector-curvature="0"
       d="m 173.78,58.23 a 6.53,6.53 0 0 0 -2,-2.32 12.58,12.58 0 0 0 -3.17,-1.64 29.63,29.63 0 0 0 -4.19,-1.17 c -0.91,-0.2 -1.7,-0.4 -2.28,-0.59 a 10.26,10.26 0 0 1 -1.44,-0.59 1.75,1.75 0 0 1 -0.72,-0.62 1.61,1.61 0 0 1 -0.23,-0.82 v -0.06 a 1.54,1.54 0 0 1 0.69,-1.25 3.45,3.45 0 0 1 2,-0.49 11.28,11.28 0 0 1 3.76,0.69 15.17,15.17 0 0 1 3.79,2 l 3.73,-5.29 a 15.56,15.56 0 0 0 -4.91,-2.68 18.84,18.84 0 0 0 -6.17,-0.92 14.44,14.44 0 0 0 -4.35,0.63 9.8,9.8 0 0 0 -3.3,1.79 8.07,8.07 0 0 0 -2.09,2.72 8,8 0 0 0 -0.72,3.46 v 0.06 a 6.91,6.91 0 0 0 0.82,3.46 6.72,6.72 0 0 0 2.15,2.4 13.2,13.2 0 0 0 3.2,1.54 q 1.88,0.59 4,1.08 a 21.9,21.9 0 0 1 2.26,0.58 7.82,7.82 0 0 1 1.37,0.59 2.1,2.1 0 0 1 0.72,0.62 1.45,1.45 0 0 1 0.2,0.75 v 0.07 a 1.53,1.53 0 0 1 -0.79,1.37 4.28,4.28 0 0 1 -2.29,0.49 13.67,13.67 0 0 1 -8.72,-3.23 l -4.15,5 a 16.56,16.56 0 0 0 5.75,3.37 20.73,20.73 0 0 0 6.86,1.11 16,16 0 0 0 4.48,-0.59 10,10 0 0 0 3.43,-1.73 7.84,7.84 0 0 0 2.22,-2.74 8.31,8.31 0 0 0 0.79,-3.7 v -0.06 a 7.61,7.61 0 0 0 -0.72,-3.2 z"
       class="cls-1"
       id="path6" />
    <path
       inkscape:connector-curvature="0"
       d="M 127,56.36 V 56.3 a 13.26,13.26 0 0 0 -1.11,-5.43 13.45,13.45 0 0 0 -3,-4.41 14.26,14.26 0 0 0 -4.58,-3 15.14,15.14 0 0 0 -5.78,-1.11 14.6,14.6 0 0 0 -5.78,1.11 14.3,14.3 0 0 0 -4.61,3 13.84,13.84 0 0 0 -4.14,9.97 v 0.06 a 13.26,13.26 0 0 0 1.11,5.43 13.42,13.42 0 0 0 3,4.41 14.26,14.26 0 0 0 4.58,3 15.14,15.14 0 0 0 5.78,1.11 14.51,14.51 0 0 0 5.79,-1.11 14.25,14.25 0 0 0 4.6,-3 13.79,13.79 0 0 0 4.14,-9.97 z m -7.65,0.1 a 7.82,7.82 0 0 1 -0.49,2.78 6.57,6.57 0 0 1 -1.41,2.29 6.44,6.44 0 0 1 -2.15,1.56 6.55,6.55 0 0 1 -2.81,0.59 6.43,6.43 0 0 1 -2.81,-0.59 6.56,6.56 0 0 1 -2.19,-1.6 6.66,6.66 0 0 1 -1.41,-2.32 8,8 0 0 1 -0.49,-2.77 v -0.07 a 8,8 0 0 1 0.49,-2.78 6.58,6.58 0 0 1 1.41,-2.28 7.22,7.22 0 0 1 2.15,-1.57 7,7 0 0 1 5.62,0 6.56,6.56 0 0 1 2.19,1.6 7.15,7.15 0 0 1 1.44,2.32 7.82,7.82 0 0 1 0.49,2.78 v 0.06 z"
       class="cls-1"
       id="path8" />
    <polygon
       points="94.27,52.67 86.79,52.67 86.79,79.63 107.31,79.63 107.31,73.09 94.27,73.09 "
       class="cls-1"
       id="polygon10" />
    <path
       inkscape:connector-curvature="0"
       d="m 79,46.43 a 14.09,14.09 0 0 0 -4.58,-3 15.15,15.15 0 0 0 -5.78,-1.12 14.51,14.51 0 0 0 -5.79,1.12 14.12,14.12 0 0 0 -1.3,0.62 V 33.13 h -7.5 v 37.25 h 7.45 v -1.66 c 0.39,0.19 0.81,0.39 1.24,0.58 a 15.14,15.14 0 0 0 5.78,1.11 14.68,14.68 0 0 0 5.79,-1.11 14.25,14.25 0 0 0 4.6,-3 13.79,13.79 0 0 0 4.19,-9.94 V 56.3 A 13.26,13.26 0 0 0 82,50.87 14.66,14.66 0 0 0 79,46.43 Z m -3.5,10 a 7.82,7.82 0 0 1 -0.5,2.81 6.7,6.7 0 0 1 -1.4,2.29 6.66,6.66 0 0 1 -5,2.15 6.43,6.43 0 0 1 -2.81,-0.59 6.56,6.56 0 0 1 -2.19,-1.6 6.66,6.66 0 0 1 -1.41,-2.32 8,8 0 0 1 -0.49,-2.77 v -0.07 a 8,8 0 0 1 0.49,-2.78 6.58,6.58 0 0 1 1.41,-2.28 7.14,7.14 0 0 1 2.16,-1.57 7,7 0 0 1 5.62,0 6.66,6.66 0 0 1 2.19,1.6 7.3,7.3 0 0 1 1.43,2.32 7.82,7.82 0 0 1 0.49,2.78 v 0.06 z"
       class="cls-1"
       id="path12" />
  </g>
</svg>
